# xmcd CD database file
#
# Track frame offsets:
#	150
#	25443
#	46405
#	65153
#	82843
#	104110
#	126978
#	155366
#	184651
#	206482
#	233434
#	254527
#	274255
#	303233
#	328581
#
# Disc length: 4620 seconds
#
# Revision: 2
# Processed by: cddbd v1.5.2PL0 Copyright (c) Steve Scherf et al.
# Submitted via: CDex 1.79
#
DISCID=d4120a0f
DTITLE=Robert Harris - Pompeii CD 2
DYEAR=2004
DGENRE=Audiobook
TTITLE0=Pompeii 017
TTITLE1=Pompeii 018
TTITLE2=Pompeii 019
TTITLE3=Pompeii 020
TTITLE4=Pompeii 021
TTITLE5=Pompeii 022
TTITLE6=Pompeii 023
TTITLE7=Pompeii 024
TTITLE8=Pompeii 025
TTITLE9=Pompeii 026
TTITLE10=Pompeii 027
TTITLE11=Pompeii 028
TTITLE12=Pompeii 029
TTITLE13=Pompeii 30
TTITLE14=Pompeii 31
EXTD=YEAR: 2004
EXTT0=
EXTT1=
EXTT2=
EXTT3=
EXTT4=
EXTT5=
EXTT6=
EXTT7=
EXTT8=
EXTT9=
EXTT10=
EXTT11=
EXTT12=
EXTT13=
EXTT14=
PLAYORDER=
